<svg width="139" height="140" viewBox="0 0 139 140" fill="none" xmlns="http://www.w3.org/2000/svg">
<path d="M0 0H92C96.4183 0 100 3.58172 100 8V20H0V0Z" fill="#AF2D2D"/>
<path d="M0 40H59V60H0V40Z" fill="#AF2D2D"/>
<path d="M0 80H39V100H8C3.58172 100 0 96.4183 0 92V80Z" fill="#AF2D2D"/>
<path d="M0 0H20V100H8C3.58172 100 0 96.4183 0 92V0Z" fill="#AF2D2D"/>
<path d="M39 0H59V60H39V0Z" fill="#AF2D2D"/>
<path d="M80 0H92C96.4183 0 100 3.58172 100 8V40H80V0Z" fill="#AF2D2D"/>
<path d="M139 140L47 140C42.5817 140 39 136.418 39 132V120L139 120V140Z" fill="#AF2D2D"/>
<path d="M139 100L80 100V80L139 80V100Z" fill="#AF2D2D"/>
<path d="M139 60L100 60V40L131 40C135.418 40 139 43.5817 139 48V60Z" fill="#AF2D2D"/>
<path d="M139 140H119L119 40H131C135.418 40 139 43.5817 139 48L139 140Z" fill="#AF2D2D"/>
<path d="M100 140H80L80 80H100L100 140Z" fill="#AF2D2D"/>
<path d="M100 140H80L80 80H100L100 140Z" fill="#AF2D2D"/>
<path d="M59 140H47C42.5817 140 39 136.418 39 132L39 100H59L59 140Z" fill="#AF2D2D"/>
</svg>
